# xmcd
#
# Track frame offsets:
#	150
#	14365
#	27115
#	41767
#	58015
#	74700
#	88287
#	99830
#	116902
#	131402
#	159417
#	179522
#	199827
#	220112
#
# Disc length: 3166 seconds
# Revision: 2
# Processed by: cddbd v1.5.2PL0 Copyright (c) Steve Scherf et al.
# Submitted via: dBpowerAMP V12.0
#
DISCID=c90c5c0e
DTITLE=Vassar Clements - An Americana Christmas
DYEAR=1995
DGENRE=Country
TTITLE0=God Rest Ye Merry Gentlemen
TTITLE1=Angels From The Realms Of Glory
TTITLE2=Blissful Meadows
TTITLE3=Trim The Tree Waltz
TTITLE4=Star Of Bethlehem
TTITLE5=Christmas Hornpipe
TTITLE6=O Come All Ye Faithful
TTITLE7=Cradle Hymn
TTITLE8=Angels We Have Heard On High
TTITLE9=Country Christmas
TTITLE10=Yuletide Magic
TTITLE11=Holiday Shuffle
TTITLE12=Black Hawthorne
TTITLE13=Star Of The East
EXTD=
EXTT0=
EXTT1=
EXTT2=
EXTT3=
EXTT4=
EXTT5=
EXTT6=
EXTT7=
EXTT8=
EXTT9=
EXTT10=
EXTT11=
EXTT12=
EXTT13=
PLAYORDER=
